<?xml version="1.0" standalone="no"?>
<!DOCTYPE svg PUBLIC "-//W3C//DTD SVG 20010904//EN"
 "http://www.w3.org/TR/2001/REC-SVG-20010904/DTD/svg10.dtd">
<svg version="1.0" xmlns="http://www.w3.org/2000/svg"
 width="95.000000pt" height="89.000000pt" viewBox="0 0 95.000000 89.000000"
 preserveAspectRatio="xMidYMid meet">
<metadata>
Created by potrace 1.13, written by Peter Selinger 2001-2015
</metadata>
<g transform="translate(0.000000,89.000000) scale(0.100000,-0.100000)"
fill="#333399" stroke="none">
<path d="M390 844 c-152 -41 -265 -164 -290 -317 -14 -91 13 -209 64 -272 11
-14 9 -4 -6 30 -18 40 -22 69 -23 150 0 87 3 107 26 155 111 236 432 270 583
63 70 -96 82 -219 33 -327 -52 -113 -141 -176 -262 -184 -150 -9 -172 43 -85
204 27 50 51 107 52 126 3 29 0 33 -22 36 -69 8 -190 -174 -190 -287 0 -100
50 -158 156 -182 112 -25 260 28 353 126 217 229 111 601 -194 680 -72 18
-123 18 -195 -1z"/>
<path d="M485 645 c-30 -30 -32 -64 -4 -99 42 -54 129 -19 129 51 0 22 -8 38
-26 52 -35 28 -69 26 -99 -4z"/>
</g>
</svg>
